# xmcd
#
# Track frame offsets:
#	150
#	15938
#	24130
#	48820
#	68098
#	89626
#	103742
#	111802
#	127583
#	149404
#	158826
#	180221
#
# Disc length: 2658 seconds
# Revision: 0
# Processed by: cddbd v1.5.2PL0 Copyright (c) Steve Scherf et al.
# Submitted via: dBpowerAMP V12.0
#
DISCID=860a600c
DTITLE=Hale Dwoskin - Practical Freedom CD 07 - Looking Great
DYEAR=2005
DGENRE=Speech
TTITLE0=Introduction
TTITLE1=Rejecting Your Appearance
TTITLE2=Feeling Uncomfortable with How You Look
TTITLE3=Being Ugly
TTITLE4=Being Large - Being Fat
TTITLE5=Being Overweight - Take a Break
TTITLE6=Welcome Back
TTITLE7=Living to Eat - Being Ugly
TTITLE8=Your Age - Aging Process
TTITLE9=Feeling Dull
TTITLE10=Disapproving of Your Body - Wanting to Change It
TTITLE11=Love and Hate about the Body
EXTD=
EXTT0=
EXTT1=
EXTT2=
EXTT3=
EXTT4=
EXTT5=
EXTT6=
EXTT7=
EXTT8=
EXTT9=
EXTT10=
EXTT11=
PLAYORDER=
